:SAMPLES-PER-SECOND 30
:FULLY-SPECIFIED
:DEGREES
500
root  25.9716 38.8076 5.97906 -70.3678 89.1416 -65.248
RightUpLeg  5.36325 -9.08547 -0.518917
RightLeg  16.5818 5.65481 2.22431
RightFoot  -15.7136 -0.198404 -2.4235
RightToes  -1.33073e-015 0 -3.6325e-017
Spine  4.88735 2.1507 12.7584
Spine1  6.51668 4.44439 -6.14381
HEad  -13.3368 -0.512952 -14.3023
LeftShoulder1  -0.268809 4.18948 -33.0755
LeftArm  -1.53425 18.3149 -36.0484
LeftForeArm  29.3002 -12.7955 -7.08258
LeftHand  -0.0631709 7.85025 -0.905855
RightShoulder  -0.973793 -6.143 30.3214
RightArm  22.3437 17.3091 39.6799
RightForeArm  -1.05699 21.9602 4.99302
RightHand  -0.254408 6.60526 -2.80123
LeftUpLeg  -18.9713 3.52649 1.68969
LeftLeg  29.234 -1.24272 -0.38996
LeftFoot  -0.502114 0.0948762 -0.96159
LeftToes  -1.63346e-009 7.54925e-011 9.86887e-012
501
root  27.2343 38.8244 6.00708 -15.0887 89.1043 -10.7867
RightUpLeg  7.80669 -9.03767 -1.42891
RightLeg  14.0987 6.55559 2.14046
RightFoot  -16.5187 -0.196443 -1.87946
RightToes  -1.33073e-015 0 -3.6325e-017
Spine  3.92732 2.74459 12.0836
Spine1  6.84592 5.04109 -7.4119
HEad  -14.1347 -0.662264 -13.266
LeftShoulder1  -0.218529 4.06372 -32.9025
LeftArm  -3.02554 19.8635 -35.4644
LeftForeArm  29.0934 -13.0974 -6.53641
LeftHand  -0.0787108 8.54446 -1.10086
RightShoulder  -0.889547 -5.96668 29.5291
RightArm  18.8361 20.224 40.7352
RightForeArm  1.3488 23.6311 4.97017
RightHand  -0.319569 7.06279 -3.3299
LeftUpLeg  -18.203 3.87175 1.13866
LeftLeg  14.7399 -0.692678 0.0263727
LeftFoot  0.362186 0.177218 -1.7485
LeftToes  -1.63346e-009 7.54925e-011 9.86887e-012
502
root  28.5381 38.7678 6.01402 1.84985 88.6832 5.98248
RightUpLeg  11.0546 -8.94845 -2.18235
RightLeg  11.5976 7.33609 1.95529
RightFoot  -17.3293 -0.178315 -1.16505
RightToes  -1.33073e-015 0 -3.6325e-017
Spine  4.01234 3.01449 12.0412
Spine1  6.69673 5.64546 -9.2748
HEad  -13.9362 -1.40082 -12.3482
LeftShoulder1  -0.162412 3.92171 -32.7625
LeftArm  -4.1489 21.4267 -34.6502
LeftForeArm  28.6159 -13.2254 -6.13032
LeftHand  -0.0993032 8.48957 -1.86219
RightShoulder  -0.838755 -5.88116 28.6787
RightArm  15.673 22.2251 41.8037
RightForeArm  3.002 24.659 5.12302
RightHand  -0.375591 7.28474 -3.79236
LeftUpLeg  -16.5566 2.84261 1.29093
LeftLeg  1.49312 0.56744 0.0445409
LeftFoot  0.491522 0.308159 -3.00728
LeftToes  -1.63346e-009 7.54925e-011 9.86887e-012
503
root  29.8957 38.5547 5.94056 -5.03003 87.9592 -0.7724
RightUpLeg  13.7427 -8.9057 -2.73525
RightLeg  11.0539 8.40959 1.89954
RightFoot  -18.6588 -0.184341 -0.895194
RightToes  -1.33073e-015 0 -3.6325e-017
Spine  4.1406 3.11743 12.3202
Spine1  6.82158 6.11062 -10.7026
HEad  -14.4029 -0.659728 -12.0443
LeftShoulder1  -0.207808 4.04156 -32.496
LeftArm  -4.90293 22.5521 -34.1769
LeftForeArm  27.3458 -12.921 -6.01324
LeftHand  -0.0674784 8.66889 -0.681018
RightShoulder  -0.779692 -5.72579 28.4602
RightArm  13.7293 24.04 42.9591
RightForeArm  3.43192 25.2782 5.24004
RightHand  -0.452504 7.51487 -4.42535
LeftUpLeg  -16.0568 3.34525 1.53923
LeftLeg  -5.28259 1.43555 -0.400158
LeftFoot  -0.552035 0.465877 -4.92071
LeftToes  -1.63346e-009 7.54925e-011 9.86887e-012
504
root  31.3044 38.189 5.79244 -5.39447 87.6662 -1.00397
RightUpLeg  15.6657 -9.23243 -3.71689
RightLeg  12.5187 9.59156 2.1858
RightFoot  -20.6815 -0.173716 -0.43767
RightToes  -1.33073e-015 0 -3.6325e-017
Spine  4.38845 3.13439 12.2045
Spine1  6.64397 6.24644 -11.2055
HEad  -14.8376 -0.232042 -11.2833
LeftShoulder1  -0.245492 4.13228 -32.9484
LeftArm  -6.1065 22.2708 -33.4847
LeftForeArm  28.0927 -11.4475 -6.10393
LeftHand  -0.0708689 8.94845 -0.684057
RightShoulder  -0.734191 -5.62061 28.0311
RightArm  12.5449 25.2459 44.2514
RightForeArm  3.40474 25.4 5.26901
RightHand  -0.5091 8.00588 -4.77396
LeftUpLeg  -17.1871 3.30786 1.34184
LeftLeg  -3.3775 4.18648 -0.693858
LeftFoot  -1.32248 0.480406 -5.49621
LeftToes  -1.63346e-009 7.54925e-011 9.86887e-012
505
root  32.8072 37.8517 5.625 8.3869 87.866 13.0561
RightUpLeg  17.8163 -8.93819 -5.01741
RightLeg  14.1049 9.75419 2.15559
RightFoot  -22.4402 -0.018216 1.3759
RightToes  -1.33073e-015 0 -3.6325e-017
Spine  4.41865 3.14138 10.9981
Spine1  6.68567 6.30748 -11.3817
HEad  -14.9654 -0.474083 -10.28
LeftShoulder1  -0.215966 4.0604 -32.5903
LeftArm  -7.26371 21.8627 -33.6729
LeftForeArm  29.9122 -9.67312 -6.12566
LeftHand  -0.0842453 8.59627 -1.27396
RightShoulder  -0.715075 -5.57392 27.869
RightArm  12.2729 25.0221 45.1405
RightForeArm  3.59048 25.7373 5.33546
RightHand  -0.52874 8.01526 -4.93758
LeftUpLeg  -19.1284 2.72038 0.0653214
LeftLeg  3.82341 7.16987 -0.0105567
LeftFoot  2.99034 -0.0100944 -0.203673
LeftToes  -1.63346e-009 7.54925e-011 9.86887e-012
506
root  34.4268 37.6058 5.41628 24.9055 86.8665 30.1995
RightUpLeg  20.027 -6.54737 -6.40348
RightLeg  16.0483 8.9718 2.19306
RightFoot  -23.1532 0.275127 4.15834
RightToes  -1.33073e-015 0 -3.6325e-017
Spine  4.08622 3.54522 9.92789
Spine1  7.47958 7.0855 -12.6827
HEad  -14.6991 -0.681264 -8.89477
LeftShoulder1  -0.149282 3.89921 -31.695
LeftArm  -7.8187 21.348 -34.2486
LeftForeArm  31.0967 -8.06871 -6.11949
LeftHand  -0.0889893 8.78959 -1.27728
RightShoulder  -0.778319 -5.70027 28.807
RightArm  13.5451 24.1449 45.3244
RightForeArm  4.05444 26.0283 5.37676
RightHand  -0.470147 7.74106 -4.51749
LeftUpLeg  -19.6738 3.66163 -1.60288
LeftLeg  9.50434 6.83921 0.598575
LeftFoot  8.69428 -0.702656 3.74346
LeftToes  -1.63346e-009 7.54925e-011 9.86887e-012
507
root  36.0417 37.3903 5.17272 35.8577 85.0139 41.9842
RightUpLeg  20.7674 -2.43214 -7.95127
RightLeg  20.8227 6.7589 2.69978
RightFoot  -22.9216 0.653258 7.95407
RightToes  -1.33073e-015 0 -3.6325e-017
Spine  4.4769 4.22261 7.5752
Spine1  7.26841 7.59265 -12.5975
HEad  -13.8172 -0.445473 -8.29447
LeftShoulder1  -0.254867 4.15222 -33.0178
LeftArm  -7.07177 19.6172 -33.0373
LeftForeArm  32.4752 -6.29129 -6.43662
LeftHand  -0.129076 9.41742 -2.14417
RightShoulder  -0.763145 -5.65757 28.7918
RightArm  16.5164 22.0405 46.017
RightForeArm  3.98955 25.4336 5.2428
RightHand  -0.504699 8.30721 -4.64637
LeftUpLeg  -19.4672 6.08999 -4.04286
LeftLeg  15.017 4.49121 1.05099
LeftFoot  10.2146 -1.05746 5.2735
LeftToes  -1.63346e-009 7.54925e-011 9.86887e-012
508
root  37.5521 37.2388 4.94079 53.051 83.8147 59.7191
RightUpLeg  19.1408 -1.49523 -10.8813
RightLeg  29.4638 6.75344 3.86093
RightFoot  -19.8194 0.856506 13.8518
RightToes  -1.33073e-015 0 -3.6325e-017
Spine  4.76554 4.14067 4.39606
Spine1  7.03587 7.1362 -12.5177
HEad  -12.7884 -0.0953129 -7.12836
LeftShoulder1  -0.412261 4.53446 -33.8416
LeftArm  -6.49232 17.727 -32.5241
LeftForeArm  33.3461 -5.06949 -6.71188
LeftHand  -0.107604 8.68545 -2.00452
RightShoulder  -0.786678 -5.70836 29.0511
RightArm  21.1982 19.6037 47.513
RightForeArm  3.49029 23.8201 4.91293
RightHand  -0.527957 7.92953 -4.95811
LeftUpLeg  -19.2925 6.84778 -7.08276
LeftLeg  20.3767 3.47677 1.83179
LeftFoot  6.06874 -1.03205 6.47228
LeftToes  -1.63346e-009 7.54925e-011 9.86887e-012
509
root  38.8927 37.2708 4.66717 59.974 82.9069 66.8013
RightUpLeg  14.3929 0.218045 -12.3541
RightLeg  40.583 5.3003 4.57438
RightFoot  -10.7402 -0.120827 17.6308
RightToes  -1.33073e-015 0 -3.6325e-017
Spine  5.96501 3.84897 4.00794
Spine1  5.73367 7.03513 -14.8718
HEad  -12.5245 -0.548445 -6.51465
LeftShoulder1  -0.248317 4.14006 -32.9461
LeftArm  -6.85596 16.2302 -34.1132
LeftForeArm  34.0892 -4.39847 -6.67993
LeftHand  -0.111461 9.11118 -1.83144
RightShoulder  -0.829433 -5.79267 29.6187
RightArm  24.5125 16.1124 48.9951
RightForeArm  4.82999 21.7414 4.77421
RightHand  -0.438462 7.58889 -4.28036
LeftUpLeg  -18.017 7.03019 -8.79712
LeftLeg  22.6837 3.6068 2.00057
LeftFoot  2.62413 -0.848643 6.79227
LeftToes  -1.63346e-009 7.54925e-011 9.86887e-012
510
root  40.1644 37.4118 4.4349 60.2806 81.7053 67.1555
RightUpLeg  7.48962 2.84927 -13.2417
RightLeg  52.2464 4.10688 5.32311
RightFoot  1.93606 -1.63406 14.4056
RightToes  -1.33073e-015 0 -3.6325e-017
Spine  6.31084 3.91192 2.5384
Spine1  5.87664 6.9627 -14.9999
HEad  -13.4446 0.0834117 -6.90186
LeftShoulder1  -0.219371 4.06069 -33.1718
LeftArm  -6.40858 13.1534 -35.6194
LeftForeArm  34.0258 -4.37753 -7.15892
LeftHand  -0.0951485 8.96234 -1.3532
RightShoulder  -0.85719 -5.85915 29.7828
RightArm  26.9733 14.2016 50.3211
RightForeArm  6.28845 18.3844 5.73747
RightHand  -0.375871 7.14429 -3.83161
LeftUpLeg  -15.972 7.53698 -10.2055
LeftLeg  23.0806 3.97722 2.20246
LeftFoot  0.165367 -0.717868 7.09607
LeftToes  -1.63346e-009 7.54925e-011 9.86887e-012
511
root  41.3057 37.5443 4.24888 57.7689 80.6877 64.6655
RightUpLeg  0.644493 5.28425 -13.4815
RightLeg  61.1189 3.39021 6.15742
RightFoot  7.99196 -1.6484 9.76913
RightToes  -1.33073e-015 0 -3.6325e-017
Spine  7.24509 3.92725 0.625569
Spine1  5.53611 6.51252 -14.0781
HEad  -14.1604 1.09729 -7.12625
LeftShoulder1  -0.367105 4.4206 -33.9185
LeftArm  -5.16786 9.61081 -36.851
LeftForeArm  33.9764 -5.25734 -8.07093
LeftHand  -0.0534582 8.51378 -0.219195
RightShoulder  -0.792707 -5.6975 29.5039
RightArm  26.4727 12.4853 51.7195
RightForeArm  11.0052 14.4144 7.64183
RightHand  -0.257832 6.04412 -2.93218
LeftUpLeg  -14.0241 8.01031 -10.9941
LeftLeg  23.2251 4.30719 2.20961
LeftFoot  -1.9343 -0.56125 6.95284
LeftToes  -1.63346e-009 7.54925e-011 9.86887e-012
512
root  42.4801 37.7981 4.0622 58.1101 81.1616 65.1865
RightUpLeg  -4.57844 6.06864 -12.812
RightLeg  65.7252 3.07004 6.81312
RightFoot  4.61199 -1.26056 9.24314
RightToes  -1.33073e-015 0 -3.6325e-017
Spine  8.11587 3.30194 -0.0927682
Spine1  4.99311 5.42775 -12.8941
HEad  -14.5409 1.82096 -7.34228
LeftShoulder1  -0.391132 4.47849 -33.9852
LeftArm  -3.28362 7.25119 -38.5355
LeftForeArm  34.4991 -8.16957 -8.67003
LeftHand  -0.0972345 9.04271 -1.50579
RightShoulder  -0.78377 -5.65057 29.8632
RightArm  24.6667 10.5188 52.2964
RightForeArm  18.0009 10.7245 9.21577
RightHand  -0.107635 4.41122 -1.56836
LeftUpLeg  -11.1391 7.29081 -10.5902
LeftLeg  22.1455 4.9688 1.89734
LeftFoot  -3.59032 -0.441838 6.83677
LeftToes  -1.63346e-009 7.54925e-011 9.86887e-012
513
root  43.6586 38.0196 3.90255 64.3319 82.1863 71.5858
RightUpLeg  -8.99877 5.38988 -12.1784
RightLeg  66.723 2.73409 6.3307
RightFoot  3.47568 -1.28003 9.98444
RightToes  -1.33073e-015 0 -3.6325e-017
Spine  8.25069 2.44205 -1.24902
Spine1  5.2006 4.01214 -11.0413
HEad  -15.4799 2.79301 -7.63361
LeftShoulder1  -0.389275 4.48067 -33.687
LeftArm  0.645278 4.89912 -40.5613
LeftForeArm  30.8204 -11.8095 -8.31676
LeftHand  -0.0838986 7.99946 -1.44167
RightShoulder  -0.805369 -5.67523 30.4471
RightArm  21.4498 7.80743 52.0612
RightForeArm  23.9682 7.91332 9.6281
RightHand  -0.0100898 4.26067 -0.407682
LeftUpLeg  -8.30021 5.83911 -10.1393
LeftLeg  21.1191 5.2622 1.48639
LeftFoot  -5.05475 -0.348916 6.90148
LeftToes  -1.63346e-009 7.54925e-011 9.86887e-012
514
root  44.8274 38.2303 3.75458 73.0266 83.2946 79.9214
RightUpLeg  -13.3344 4.30195 -11.1062
RightLeg  64.6814 2.18612 4.48055
RightFoot  2.60436 -0.960088 7.98615
RightToes  -1.33073e-015 0 -3.6325e-017
Spine  7.64263 1.71794 -2.3376
Spine1  5.69824 2.74674 -8.49296
HEad  -18.1339 3.54542 -7.64098
LeftShoulder1  -0.298525 4.25669 -33.5065
LeftArm  6.79262 2.64253 -42.58
LeftForeArm  24.1869 -16.4999 -6.71583
LeftHand  -0.0238494 6.69127 0.796081
RightShoulder  -0.836411 -5.7569 30.489
RightArm  18.6381 4.43536 51.5035
RightForeArm  25.9667 6.34048 9.25488
RightHand  -0.0278673 3.67398 -0.619244
LeftUpLeg  -6.056 4.78637 -9.63366
LeftLeg  19.9948 5.04637 1.13867
LeftFoot  -6.34125 -0.269518 7.03973
LeftToes  -1.63346e-009 7.54925e-011 9.86887e-012
